# xmcd CD database file generated by LOLA_Freedb v0.9beta0
# 
# Track frame offsets:
#      150
#      25775
#      38198
#      52343
#      74503
#      92650
#      104401
#      120952
#      133327
#      146508
#      159900
# 
# Disc length: 2337 seconds
# 
# Revision: 0 
# Processed by: cddbd v1.5.2PL0 Copyright (c) Steve Scherf et al.
# Submitted via: LOLA_Freedb v0.9beta0
# 
DISCID=99091f0b
DTITLE=The Needhams - The Needhams
DYEAR=2007
DGENRE=
TTITLE0=The Needhams - The Anchor Holds
TTITLE1=The Needhams - Faith Is The Victory
TTITLE2=The Needhams - Follow His Heart
TTITLE3=The Needhams - Freedom Is Not Free
TTITLE4=The Needhams - Give It To Me
TTITLE5=Good God
TTITLE6=The Needhams - Hollow OF His Hand
TTITLE7=The Needhams - I Have The Rock
TTITLE8=The Needhams - Looking Ahead
TTITLE9=The Needhams - Songs In The Night
TTITLE10=The Needhams - Streams Of Living Water
EXTD=
EXTT0=
EXTT1=
EXTT2=
EXTT3=
EXTT4=
EXTT5=
EXTT6=
EXTT7=
EXTT8=
EXTT9=
EXTT10=
PLAYORDER=
